<?xml version="1.0" encoding="UTF-8"?>
<svg id="Layer_1" data-name="Layer 1" xmlns="http://www.w3.org/2000/svg" viewBox="0 0 80 80">
  <g>
    <path d="M40,10.69c-.05,0-.1,.02-.15,.04l-20.37,11.53c-.19,.11-.31,.31-.31,.54V55.71c0,.47,.51,.77,.92,.53l8.09-4.61c.19-.11,.31-.31,.31-.53V27.31c0-.75,.87-1.16,1.45-.69l9.87,7.94c.06,.05,.13,.07,.2,.07V10.69Z" fill="#d2b56c"/>
    <path d="M40,10.69c.05,0,.1,.02,.15,.04l20.37,11.53c.19,.11,.31,.31,.31,.54V55.71c0,.47-.51,.77-.92,.53l-8.09-4.61c-.19-.11-.31-.31-.31-.53V27.31c0-.75-.87-1.16-1.45-.69l-9.87,7.94c-.06,.05-.13,.07-.2,.07V10.69Z" fill="#1c2e4e"/>
  </g>
  <g>
    <path d="M8.3,58.37l5.5,13.57,5.48-13.57c.18-.47,.49-.84,1.07-.84h.92v16.43h-.78c-.43,0-.76-.37-.76-.84v-11.79l-5.13,12.63h-1.62l-6.67-16.43h.92c.57,0,.88,.37,1.07,.84Zm-1.99,8.09h1.54v6.65c0,.47-.33,.84-.76,.84h-.78v-7.5Z" fill="#1b2e4e"/>
    <path d="M27.9,61.31c3.02,0,4.93,1.87,4.93,4.85h-9.84c0-2.98,1.89-4.85,4.91-4.85Zm-4.25,7.29c.45,0,.78,.37,.78,.84,0,2.16,1.33,3.51,3.47,3.51,1.5,0,2.34-.66,2.79-1.23,.55-.7,.72-1.38,1.5-1.38h.58c-.33,2.16-1.85,3.94-4.87,3.94s-4.91-1.87-4.91-4.85v-.84h.66Zm7.54-3.78c-.45-1.36-1.64-2.18-3.29-2.18s-2.83,.82-3.27,2.18h6.55Z" fill="#1b2e4e"/>
    <path d="M34.35,57.53h.66c.45,0,.78,.37,.78,.84v14.74c0,.47-.33,.84-.76,.84h-.68v-16.43Z" fill="#1b2e4e"/>
    <path d="M37.91,57.53h.66c.45,0,.78,.37,.78,.84v7.95l4.13-3.84c.45-.41,.99-.84,1.68-.84h1.19l-3.72,3.49,5.11,8.83h-.74c-.78,0-1.09-.37-1.36-.84l-4.07-7-2.24,2.09v4.91c0,.47-.33,.84-.76,.84h-.68v-16.43Z" fill="#1b2e4e"/>
    <path d="M48.78,57.53h.66c.45,0,.78,.37,.78,.84v1.07c0,.47-.33,.84-.76,.84h-.68v-2.75Zm0,4.11h.66c.45,0,.78,.37,.78,.84v10.64c0,.47-.33,.84-.76,.84h-.68v-12.32Z" fill="#1b2e4e"/>
    <path d="M52.32,61.64h.66c.45,0,.78,.37,.78,.84v.29c.72-.92,1.87-1.46,3.47-1.46,3.02,0,4.93,1.87,4.93,4.85v7.8h-.68c-.43,0-.76-.37-.76-.84v-6.96c0-2.16-1.36-3.51-3.49-3.51s-3.47,1.36-3.47,3.51v6.96c0,.47-.33,.84-.76,.84h-.68v-12.32Z" fill="#1b2e4e"/>
    <path d="M63.68,66.17c0-3,1.89-4.87,4.91-4.87,1.6,0,2.77,.53,3.49,1.48v-.31c0-.47,.33-.84,.78-.84h.66v6.02c0,2.98-1.91,4.85-4.93,4.85s-4.91-1.87-4.91-4.85v-1.48Zm9.77,6.53v.84c0,2.98-1.89,4.85-4.91,4.85s-4.54-1.79-4.87-3.94h.58c.78,0,.94,.68,1.5,1.38,.45,.58,1.29,1.23,2.79,1.23,2.14,0,3.47-1.36,3.47-3.51,0-.47,.33-.84,.78-.84h.66Zm-4.87-1.54c2.14,0,3.49-1.36,3.49-3.51v-1.48c0-2.18-1.36-3.53-3.49-3.53s-3.47,1.36-3.47,3.53v1.48c0,2.16,1.33,3.51,3.47,3.51Z" fill="#1b2e4e"/>
  </g>
  <path d="M25.12,17.78l14.8-8.65c.05-.03,.11-.03,.16,0l14.8,8.65c.59,.34,1.33-.08,1.33-.76V3.57c0-.12-.13-.2-.24-.14l-7.77,4.67c-.06,.03-.13,.03-.18-.01l-7.92-6.26c-.06-.05-.14-.05-.2,0l-7.92,6.26c-.05,.04-.12,.05-.18,.01l-7.77-4.67c-.11-.06-.24,.01-.24,.14v13.46c0,.68,.74,1.1,1.33,.76Z" fill="#d2b46c"/>
</svg>