<?xml version="1.0" encoding="UTF-8"?>
<svg id="Layer_1" data-name="Layer 1" xmlns="http://www.w3.org/2000/svg" viewBox="0 0 120 120">
  <g>
    <path d="M60,19.32c-.07,0-.14,.02-.2,.06l-26.95,15.26c-.26,.14-.41,.42-.41,.71v43.53c0,.62,.67,1.02,1.22,.71l10.7-6.1c.25-.14,.41-.41,.41-.71v-31.47c0-.99,1.15-1.54,1.92-.92l13.05,10.5c.08,.06,.17,.09,.26,.1V19.32Z" fill="#d2b56c"/>
    <path d="M60,19.32c.07,0,.14,.02,.2,.06l26.95,15.26c.26,.14,.41,.42,.41,.71v43.53c0,.62-.67,1.02-1.22,.71l-10.7-6.1c-.25-.14-.41-.41-.41-.71v-31.47c0-.99-1.15-1.54-1.92-.92l-13.05,10.5c-.08,.06-.17,.09-.26,.1V19.32Z" fill="#1c2e4e"/>
  </g>
  <g>
    <path d="M19.47,85.18l7.03,17.35,7.01-17.35c.24-.6,.63-1.08,1.36-1.08h1.18v21h-1c-.55,0-.97-.47-.97-1.08v-15.07l-6.56,16.14h-2.07l-8.53-21h1.18c.73,0,1.13,.47,1.36,1.08Zm-2.55,10.34h1.97v8.5c0,.6-.42,1.08-.97,1.08h-1v-9.58Z" fill="#1b2e4e"/>
    <path d="M44.52,88.93c3.86,0,6.3,2.39,6.3,6.19h-12.57c0-3.81,2.42-6.19,6.27-6.19Zm-5.43,9.32c.58,0,1,.47,1,1.08,0,2.76,1.71,4.49,4.44,4.49,1.92,0,2.99-.84,3.57-1.58,.71-.89,.92-1.76,1.92-1.76h.73c-.42,2.76-2.36,5.04-6.22,5.04s-6.27-2.39-6.27-6.19v-1.08h.84Zm9.63-4.83c-.58-1.73-2.1-2.78-4.2-2.78s-3.62,1.05-4.17,2.78h8.37Z" fill="#1b2e4e"/>
    <path d="M52.77,84.1h.84c.58,0,1,.47,1,1.08v18.85c0,.6-.42,1.08-.97,1.08h-.87v-21Z" fill="#1b2e4e"/>
    <path d="M57.33,84.1h.84c.58,0,1,.47,1,1.08v10.16l5.28-4.91c.58-.53,1.26-1.08,2.15-1.08h1.52l-4.75,4.46,6.54,11.29h-.95c-1,0-1.39-.47-1.73-1.08l-5.2-8.95-2.86,2.68v6.27c0,.6-.42,1.08-.97,1.08h-.87v-21Z" fill="#1b2e4e"/>
    <path d="M71.22,84.1h.84c.58,0,1,.47,1,1.08v1.37c0,.6-.42,1.08-.97,1.08h-.87v-3.52Zm0,5.25h.84c.58,0,1,.47,1,1.08v13.6c0,.6-.42,1.08-.97,1.08h-.87v-15.75Z" fill="#1b2e4e"/>
    <path d="M75.75,89.35h.84c.58,0,1,.47,1,1.08v.37c.92-1.18,2.39-1.86,4.44-1.86,3.86,0,6.3,2.39,6.3,6.19v9.97h-.87c-.55,0-.97-.47-.97-1.08v-8.9c0-2.76-1.73-4.49-4.46-4.49s-4.44,1.73-4.44,4.49v8.9c0,.6-.42,1.08-.97,1.08h-.87v-15.75Z" fill="#1b2e4e"/>
    <path d="M90.27,95.15c0-3.83,2.41-6.22,6.27-6.22,2.05,0,3.54,.68,4.46,1.89v-.39c0-.6,.42-1.08,1-1.08h.84v7.69c0,3.81-2.44,6.2-6.3,6.2s-6.27-2.39-6.27-6.2v-1.89Zm12.49,8.35v1.08c0,3.81-2.42,6.2-6.27,6.2s-5.8-2.28-6.22-5.04h.73c1,0,1.21,.87,1.92,1.76,.58,.74,1.65,1.58,3.57,1.58,2.73,0,4.44-1.73,4.44-4.49,0-.6,.42-1.08,1-1.08h.84Zm-6.22-1.97c2.73,0,4.46-1.73,4.46-4.49v-1.89c0-2.78-1.73-4.51-4.46-4.51s-4.44,1.73-4.44,4.51v1.89c0,2.76,1.71,4.49,4.44,4.49Z" fill="#1b2e4e"/>
  </g>
  <path d="M40.31,28.7l19.58-11.45c.07-.04,.15-.04,.22,0l19.57,11.45c.78,.46,1.76-.11,1.76-1.01V9.89c0-.16-.18-.26-.32-.18l-10.28,6.18c-.07,.04-.17,.04-.24-.02l-10.48-8.29c-.08-.06-.18-.06-.26,0l-10.48,8.29c-.07,.05-.16,.06-.24,.02l-10.28-6.18c-.14-.08-.32,.02-.32,.18V27.69c0,.9,.98,1.46,1.75,1.01Z" fill="#d2b46c"/>
</svg>