<?xml version="1.0" encoding="UTF-8"?>
<svg id="Layer_1" data-name="Layer 1" xmlns="http://www.w3.org/2000/svg" viewBox="0 0 120 120">
  <g>
    <path d="M60,19.32c-.07,0-.14,.02-.2,.06l-26.95,15.26c-.26,.14-.41,.42-.41,.71v43.53c0,.62,.67,1.02,1.22,.71l10.7-6.1c.25-.14,.41-.41,.41-.71v-31.47c0-.99,1.15-1.54,1.92-.92l13.05,10.5c.08,.06,.17,.09,.26,.1V19.32Z" fill="#d2b56c"/>
    <path d="M60,19.32c.07,0,.14,.02,.2,.06l26.95,15.26c.26,.14,.41,.42,.41,.71v43.53c0,.62-.67,1.02-1.22,.71l-10.7-6.1c-.25-.14-.41-.41-.41-.71v-31.47c0-.99-1.15-1.54-1.92-.92l-13.05,10.5c-.08,.06-.17,.09-.26,.1V19.32Z" fill="#1c2e4e"/>
  </g>
  <g>
    <path d="M40.08,85.44h.06v5.15c-.06,.1-1.6,.72-4.61,1.85v.06c2,.56,3.84,1.14,5.5,1.74v.96c0,.72,.02,1.71,.06,2.99,.05,.38,.29,.56,.72,.54h1.68c.08,0,.12,.05,.12,.12v8.32c0,.08-.06,.12-.18,.12-1.06,0-1.93-.34-2.63-1.02-.73,.68-1.71,1.02-2.93,1.02-1.63,0-7.07-.02-16.33-.06-1.45,0-2.4-.74-2.87-2.21-.08-.5-.12-.92-.12-1.26v-9.51l.06-.12c2.67,.56,4.09,.88,4.25,.96-.04,.02-.12,1.22-.24,3.59h12.21c-.04-.47-.06-.81-.06-1.02v-.12l-4.67-.96v-5.15c-.08-1.21,.2-1.94,.84-2.21,.32-.24,3.37-1.5,9.15-3.77Zm-.12-2.42l.06,.12v1.38c-.21,.16-3.5,1.58-9.87,4.25l-.06-.12v-1.38c.21-.16,3.5-1.58,9.87-4.25Z" fill="#1b2e4e"/>
    <path d="M51.25,93.57v3.89c0,.84,.28,1.26,.84,1.26h1.79c.08,0,.12,.05,.12,.12v8.32c0,.08-.04,.12-.12,.12h-2.33c-1.16,0-2.07-.34-2.75-1.02-.64,.68-1.79,1.02-3.47,1.02h-1.74c-.08,0-.12-.04-.12-.12v-8.32c0-.08,.05-.12,.12-.12h3.35v-.06c0-.13-.16-1.43-.48-3.89,1.57-.48,3.16-.88,4.79-1.2Zm-2.66-5.7h.06s.79,.74,2.21,2.21c0,.05-.74,.79-2.21,2.21h-.06c-.05,0-.79-.74-2.21-2.21,0-.05,.74-.79,2.21-2.21Z" fill="#1b2e4e"/>
    <path d="M61.5,93.57v3.89c0,.84,.28,1.26,.84,1.26h1.79c.08,0,.12,.05,.12,.12v8.32c0,.08-.04,.12-.12,.12h-2.33c-1.16,0-2.07-.34-2.75-1.02-.64,.68-1.79,1.02-3.47,1.02h-1.73c-.08,0-.12-.04-.12-.12v-8.32c0-.08,.05-.12,.12-.12h3.35v-.06c0-.13-.16-1.43-.48-3.89,1.57-.48,3.16-.88,4.79-1.2Zm-4.34,15.23h.06l1.74,1.68,1.73-1.68h.06s.79,.74,2.21,2.21c0,.05-.74,.79-2.21,2.21h-.06l-1.73-1.67-1.74,1.67h-.06c-.05,0-.79-.74-2.21-2.21,0-.05,.74-.79,2.21-2.21Z" fill="#1b2e4e"/>
    <path d="M74.88,85.44h.06v5.15c-.06,.1-1.6,.72-4.61,1.85v.06c2,.56,3.84,1.14,5.5,1.74v.96c0,.72,.02,1.71,.06,2.99,0,.39,.25,.57,.72,.54h1.68c.08,0,.12,.05,.12,.12v8.32c0,.08-.06,.12-.18,.12-1.06,0-1.93-.34-2.63-1.02-.69,.68-1.73,1.02-3.11,1.02h-8.38c-.08,0-.12-.04-.12-.12v-8.32c0-.08,.05-.12,.12-.12h5.5c-.04-.51-.06-.87-.06-1.08v-.12l-4.67-.96v-5.15c-.03-1.23,.25-1.96,.84-2.21,.32-.24,3.37-1.5,9.15-3.77Z" fill="#1b2e4e"/>
    <path d="M86.31,88.19s.02,.06,.06,.06l-.42,10.47h1.97c.08,0,.12,.05,.12,.12v8.32c0,.08-.04,.12-.12,.12h-1.85c-1.04,0-1.89-.34-2.57-1.02-.64,.68-1.66,1.02-3.05,1.02h-2.03c-.08,0-.12-.04-.12-.12v-8.32c0-.08,.05-.12,.12-.12h2.15l.12-.06-.72-8.5c3.4-1,5.51-1.66,6.34-1.97Z" fill="#1b2e4e"/>
    <path d="M92.59,93.45h3.53c1.62,0,2.63,.5,3.05,1.5,.28,.55,.42,1.09,.42,1.62v8.38c-.82,1.92-1.97,3.28-3.47,4.07-.87-.59-2.02-1.47-3.47-2.63-.69,.6-1.39,.9-2.09,.9h-.3c-.59,0-1.41,0-2.45,.01v-8.45c0-.08,.05-.12,.12-.12h1.32c.04-.5,.06-.88,.06-1.14v-1.44c0-1.23,.78-2.1,2.33-2.63,.41-.04,.73-.06,.96-.06Zm-.12,5.45v.06l4.55,1.97v-1.08c0-.55-.42-.87-1.26-.96h-3.29Z" fill="#1b2e4e"/>
  </g>
  <path d="M40.31,28.7l19.58-11.45c.07-.04,.15-.04,.22,0l19.57,11.45c.78,.46,1.76-.11,1.76-1.01V9.89c0-.16-.18-.26-.32-.18l-10.28,6.18c-.07,.04-.17,.04-.24-.02l-10.48-8.29c-.08-.06-.18-.06-.26,0l-10.48,8.29c-.07,.05-.16,.06-.24,.02l-10.28-6.18c-.14-.08-.32,.02-.32,.18V27.69c0,.9,.98,1.46,1.75,1.01Z" fill="#d2b46c"/>
</svg>