<?xml version="1.0" encoding="UTF-8"?>
<svg id="Layer_1" data-name="Layer 1" xmlns="http://www.w3.org/2000/svg" viewBox="0 0 120 120">
  <g>
    <path d="M60,19.32c-.07,0-.14,.02-.2,.06l-26.95,15.26c-.26,.14-.41,.42-.41,.71v43.53c0,.62,.67,1.02,1.22,.71l10.7-6.1c.25-.14,.41-.41,.41-.71v-31.47c0-.99,1.15-1.54,1.92-.92l13.05,10.5c.08,.06,.17,.09,.26,.1V19.32Z" fill="#d2b56c"/>
    <path d="M60,19.32c.07,0,.14,.02,.2,.06l26.95,15.26c.26,.14,.41,.42,.41,.71v43.53c0,.62-.67,1.02-1.22,.71l-10.7-6.1c-.25-.14-.41-.41-.41-.71v-31.47c0-.99-1.15-1.54-1.92-.92l-13.05,10.5c-.08,.06-.17,.09-.26,.1V19.32Z" fill="#1c2e4e"/>
  </g>
  <g>
    <path d="M36.03,102.02h-7.4v-.92c.38-.03,.7-.08,.96-.16s.46-.19,.62-.34,.26-.34,.33-.57c.07-.23,.1-.51,.1-.86v-.13c0-.06,0-.11-.01-.16v-.1s-.01-.07-.01-.07c-.02-.2-.04-.41-.07-.63s-.05-.44-.07-.66c-.02-.19-.04-.37-.06-.54s-.04-.35-.06-.51c-.05-.47-.09-.94-.13-1.41s-.08-.93-.13-1.39c0-.09-.02-.17-.02-.26s-.01-.17-.02-.26c-.05-.53-.1-1.07-.16-1.64s-.12-1.12-.18-1.67c-.03-.28-.06-.56-.09-.82s-.05-.52-.07-.78c-.02-.15-.03-.26-.04-.34s-.02-.21-.04-.37c-.31,.56-.62,1.13-.93,1.72s-.6,1.17-.89,1.75-.55,1.13-.81,1.68c-.25,.54-.49,1.05-.7,1.52-.05,.13-.1,.26-.16,.4s-.12,.27-.18,.4c-.02,.02-.03,.04-.04,.07-.02,.02-.03,.04-.04,.06s-.01,.04-.02,.06c-.02,.04-.04,.07-.06,.1s-.03,.05-.03,.06c-.04,.08-.07,.16-.1,.26-.03,.09-.06,.18-.1,.26-.05,.1-.09,.2-.12,.29s-.08,.2-.12,.31l-.26,.59c-.09,.2-.17,.39-.25,.59-.17,.38-.34,.79-.53,1.22-.19,.44-.37,.88-.56,1.33-.19,.45-.38,.91-.56,1.35s-.36,.88-.53,1.29h-.79l-6.68-16.52c-.02,.17-.04,.33-.05,.48-.01,.15-.03,.31-.05,.48-.04,.32-.07,.65-.1,.97s-.06,.65-.09,.97c0,.04-.01,.08-.01,.13,0,.03,0,.06,0,.09s0,.06,0,.09c0,.06-.02,.12-.02,.17,0,.05,0,.1,0,.14,0,.06-.01,.12-.01,.17s0,.11-.01,.17c0,.05-.02,.09-.02,.13s0,.07,0,.09c0,.12-.02,.23-.02,.34s-.02,.21-.04,.3h0c-.05,.51-.09,1.04-.13,1.56-.04,.52-.07,1.03-.1,1.52s-.05,.95-.07,1.38-.03,.81-.03,1.14c0,2.87,.78,4.42,2.33,4.64v.88h-6.81v-.88c.47-.16,.87-.41,1.2-.75s.61-.8,.82-1.36c.06-.11,.12-.26,.18-.45,.06-.19,.13-.4,.19-.64s.13-.48,.2-.74c.07-.26,.14-.51,.21-.77,.02-.05,.03-.1,.04-.17,0-.06,.02-.12,.04-.17,.1-.42,.19-.88,.28-1.37s.17-1,.25-1.51c.08-.51,.15-1.02,.21-1.53s.11-.99,.14-1.44c.02-.22,.04-.46,.07-.7,.02-.24,.05-.49,.07-.74v-.12c0-.06,0-.12,.01-.17,0-.03,0-.07,0-.12s.01-.08,.02-.1c0-.13,.02-.27,.04-.44v-.18c0-.06,0-.11,.01-.16,0,0,0-.02,0-.03s0-.02,0-.03v-.04s.01-.1,.01-.1c0,0,0-.02,0-.02,0,0,0-.01,0-.02v-.11c0-.05,0-.1,.01-.14,0-.04,0-.08,0-.14,0-.05,.01-.09,.02-.11v-.03s0-.02,0-.04c0-.01,0-.03,0-.04,0-.05,.02-.1,.02-.15s0-.12,0-.18c0-.07,.01-.15,.01-.23v-.26c0-.69-.14-1.16-.41-1.41-.2-.18-.69-.28-1.48-.31v-.89h4.95l6.14,15.19,.03-.06s.03-.06,.05-.12,.05-.13,.08-.21h.01s0-.03,.01-.04c0-.02,.02-.05,.04-.08,.01-.03,.03-.07,.05-.09s.03-.06,.03-.09,0-.06,.03-.09c0,0,.02-.06,.06-.16,.02-.05,.03-.08,.04-.08s.02-.04,.04-.1l.04-.12c.03-.06,.06-.12,.08-.18,.02-.06,.04-.1,.04-.12,.02-.05,.04-.09,.05-.14,.01-.04,.03-.09,.05-.14,.45-1.04,.91-2.12,1.39-3.23,.48-1.11,.92-2.16,1.32-3.14,.31-.71,.61-1.41,.88-2.1,.27-.69,.52-1.34,.75-1.95s.43-1.17,.62-1.67,.33-.93,.45-1.27h5.32v.89c-.4,.02-.75,.05-1.04,.09-.29,.04-.5,.11-.63,.18h.01c-.2,.14-.33,.33-.42,.59s-.12,.57-.12,.94v.51c0,.08,0,.17,.01,.26v.13s0,.04,0,.06,0,.04,0,.06c0,.04,0,.09,0,.14s.01,.1,.02,.15c0,.03,0,.06,0,.09s0,.06,0,.09c0,.05,0,.09,.01,.12,.02,.2,.04,.39,.05,.57s.03,.38,.05,.57v.07s0,.03,0,.04,0,.01,0,.02c.04,.44,.08,.86,.12,1.25,.04,.4,.08,.81,.13,1.25,.02,.09,.03,.19,.04,.31s.01,.25,.02,.4c0,.03,0,.07,0,.11,0,.04,.01,.09,.02,.14h0s.01,.07,.01,.16v.07s0,.03,0,.04,0,.02,0,.03c.03,.34,.06,.68,.1,1.01s.07,.65,.11,.97c0,.05,0,.1,0,.15s.01,.1,.02,.15c0,.03,.01,.06,.01,.1v.09s0,.06,0,.09,0,.06,0,.09c0,.09,.02,.17,.02,.26s.02,.17,.04,.27v.22l.03,.06s.01,.09,.01,.16c0,.03,0,.06,0,.09s0,.06,0,.09c0,.05,.02,.1,.02,.15s0,.09,0,.13c0,.03,0,.06,0,.1s0,.07,0,.11c0,.08,0,.14,.01,.18,0,.08,.02,.15,.02,.22s.01,.14,.02,.21v.22s.01,.06,.01,.1,0,.06,.01,.08c.06,.58,.13,1.08,.21,1.5,.08,.42,.16,.71,.24,.86h0c.17,.25,.43,.46,.79,.63s.82,.26,1.38,.28v.92Z" fill="#1b2e4e"/>
    <path d="M48.47,98.33c-.51,.57-1.04,1.1-1.6,1.6s-1.12,.94-1.68,1.31-1.11,.67-1.65,.89-1.03,.32-1.48,.32c-.75,0-1.47-.19-2.17-.56s-1.32-.89-1.88-1.53c-.45-.64-.81-1.34-1.09-2.08s-.42-1.49-.42-2.26c0-.41,.05-.85,.15-1.31s.24-.93,.42-1.39c.18-.46,.37-.92,.59-1.37s.45-.87,.68-1.26c.31-.35,.66-.68,1.04-1s.78-.58,1.21-.81,.86-.41,1.3-.55,.87-.21,1.3-.21c.67,0,1.32,.14,1.94,.43s1.15,.69,1.6,1.19c.39,.46,.69,1.03,.9,1.7s.33,1.38,.37,2.12h-9.35v.04s0,.02,0,.02c0,0,0,.01,0,.02v.16c0,.08-.01,.17-.01,.29v.21c0,.34,.03,.69,.1,1.05,.06,.36,.15,.71,.25,1.05,.1,.35,.22,.68,.35,1s.27,.62,.4,.88h0c.22,.25,.47,.5,.75,.73s.56,.44,.86,.62,.62,.31,.94,.41,.66,.15,1,.15c.74,0,1.54-.27,2.4-.81,.86-.54,1.78-1.35,2.75-2.41v1.35Zm-3.02-5.7c-.08-.42-.2-.84-.36-1.26s-.34-.77-.53-1.05c-.29-.31-.63-.57-1.01-.78s-.79-.31-1.23-.31-.85,.1-1.26,.31-.79,.46-1.13,.76c-.22,.28-.43,.64-.62,1.06-.19,.42-.34,.85-.45,1.27h6.59Z" fill="#1b2e4e"/>
    <path d="M56.37,102.02h-6.84v-.92c.79-.06,1.36-.25,1.71-.59s.53-.86,.53-1.6v-13.8c0-.43-.08-.74-.24-.92s-.41-.28-.75-.28c-.14,0-.32,.02-.54,.06s-.46,.1-.7,.18v-.86c.31-.13,.67-.27,1.08-.42s.78-.3,1.14-.43h-.01s.08-.04,.13-.09l.64-.28c.11-.05,.23-.1,.37-.15s.28-.09,.42-.12h-.01s.04-.02,.07-.02,.05-.01,.07-.02c.04,0,.06,0,.07-.01,.02,0,.04-.02,.07-.03s.05-.02,.07-.03c.2-.07,.33-.13,.41-.18,0,0,0,0,0-.01,0,0,.03,0,.05,0s.04,0,.05,0h.01c.1-.07,.16-.1,.19-.1,.05-.02,.1-.04,.17-.07s.12-.05,.17-.08c.27-.1,.46-.15,.56-.15,.14,0,.17,.03,.11,.1-.06,.07-.26,.19-.59,.35v.42c-.41,.21-.62,.56-.62,1.04v15.91c0,.74,.17,1.28,.51,1.62,.34,.34,.91,.52,1.72,.56v.92Z" fill="#1b2e4e"/>
    <path d="M67.31,101.91s-.05-.06-.08-.1c-.04-.03-.06-.06-.08-.08,0,0,0,0,0,0,.02,0,.02,0,0,0-.03-.04-.06-.08-.09-.11s-.05-.06-.07-.08l-.23-.29c-.28-.33-.57-.68-.85-1.04s-.55-.71-.81-1.05c-.08-.11-.16-.21-.26-.32-.09-.11-.18-.2-.26-.28-.08-.09-.16-.19-.25-.31s-.17-.22-.23-.31c-.02-.02-.04-.04-.05-.07-.02-.02-.03-.05-.05-.07s-.04-.04-.05-.07c-.01-.02-.03-.05-.05-.07-.03-.04-.07-.08-.11-.13-.04-.05-.08-.09-.1-.13-.22-.32-.48-.66-.76-1.03s-.56-.7-.83-1.01c-.02-.02-.03-.04-.04-.05,0-.02-.05-.06-.12-.12,0,0-.03-.03-.1-.12v.57s0,.02,0,.03c0,0,0,.03,0,.06v3.52c-.06,1.19,.7,1.81,2.27,1.85v.92h-6.84v-.92c.8-.06,1.37-.26,1.7-.59,.33-.34,.5-.87,.5-1.59v-13.56c0-.51-.07-.87-.21-1.1s-.37-.34-.7-.34c-.11,0-.28,.02-.51,.07-.23,.04-.49,.1-.78,.18v-.88c.3-.11,.57-.21,.8-.3,.23-.09,.43-.18,.59-.26l.21-.09,.13-.04c.1-.04,.19-.08,.26-.11s.15-.07,.21-.1c.08-.03,.12-.05,.14-.05,.02,0,.06-.03,.14-.07l.22-.07h.01s.02,0,.03-.01l-.03,.03,.15-.07c.17-.08,.27-.13,.32-.15s.08-.03,.1-.04h0s.07-.02,.08-.02c.02,0,.03,0,.05,0h.01s.02-.02,.03-.03l.03-.03h.06s.04,0,.06-.01c0,0,.03,0,.07-.03h.1s.02,0,.03,0,.02,0,.03,0c.02,0,.04-.02,.06-.02s.02,0,0,.02c.05-.03,.1-.05,.15-.07,.05-.01,.1-.02,.14-.02v-.06s.15-.09,.15-.09h.04c.08-.05,.16-.09,.25-.12l.13-.04h.19s.02,0,.03,0,.02,0,.03,0h.21v.62c-.19,.09-.34,.2-.45,.34-.12,.14-.18,.3-.18,.46v11.72c.25-.2,.51-.4,.77-.62,.26-.22,.53-.44,.81-.67l.82-.67c.27-.22,.54-.44,.81-.64h-.01c.29-.29,.54-.6,.73-.91s.29-.58,.29-.81c0-.27-.14-.48-.42-.62-.28-.14-.71-.21-1.3-.23v-.88h7v.85c-.32,.03-.66,.11-1.03,.23-.36,.12-.73,.28-1.11,.48s-.77,.43-1.16,.7-.78,.55-1.16,.85h.01s-.09,.08-.18,.15c-.09,.07-.18,.14-.26,.2-.05,.04-.1,.08-.15,.12-.05,.04-.11,.08-.15,.12-.36,.3-.72,.61-1.08,.91-.36,.3-.71,.61-1.05,.91l.04,.06s-.02-.02-.03-.02c0,0,0,0,.01,0,.03,.04,.06,.08,.1,.12,.18,.21,.37,.45,.59,.72,.22,.28,.41,.53,.58,.74,.12,.17,.23,.33,.34,.48s.22,.29,.34,.43c.02,.02,.03,.04,.04,.07,0,.02,.02,.05,.04,.07,0,.03,.02,.06,.04,.09l.03-.06c.08,.11,.18,.24,.31,.4,.13,.16,.23,.29,.31,.39,.95,1.17,1.84,2.05,2.67,2.64,.83,.59,1.67,.91,2.52,.96v.92h-4.56s-.03-.02-.04-.03c0,0-.01-.02-.02-.03-.06-.04-.1-.07-.12-.09l.07,.03Z" fill="#1b2e4e"/>
    <path d="M78.89,102.02h-6.83v-.92c.79-.06,1.36-.26,1.71-.59,.35-.34,.52-.87,.52-1.59v-7.91c0-.28-.07-.49-.22-.62s-.39-.19-.72-.19c-.25,0-.49,.04-.72,.12h0s-.11,.04-.2,.08c-.09,.04-.21,.09-.34,.14v-.29s0-.02,0-.04c0-.01,0-.04,0-.07v-.04s-.01-.12-.01-.21v-.24c.09-.04,.15-.06,.18-.07s.05-.02,.06-.03h-.01s.11-.08,.19-.09c0,0,.02-.01,.02,0,0,0,.02,0,.05-.02h0c.11-.05,.19-.09,.25-.09,.02,0,.04-.02,.07-.03s.05-.02,.07-.03c-.02,.02-.02,.04,0,.05,.02,.02,.07,.02,.15,.02v-.15s.02,0,.02,0c0,0,.01,0,.02,0,.02,0,.04,0,.07-.02,.03-.02,.07-.03,.12-.05,.15-.05,.38-.15,.69-.29l.41-.16s.05-.02,.1-.03c.04,0,.08-.01,.12-.01v.06c.06-.05,.09-.08,.1-.1s.01-.04,.01-.06h.07s.05,0,.07-.01c0,0,.02,0,.02,0,0,0,.01,0,.02,0l.03,.15c.07-.02,.13-.04,.18-.07,0-.03-.02-.06-.04-.1-.01-.04-.03-.07-.04-.09,.02,0,.06-.02,.13-.04s.12-.03,.15-.04h-.01c-.12,.07-.17,.11-.17,.12s.08,.01,.21,.01l-.03-.12,.34-.18s.02,0,.09-.01c.03,0,.06-.01,.1-.01h.78v10.83c0,.74,.17,1.28,.5,1.62,.34,.34,.91,.52,1.72,.56v.92Zm-5.84-12.8s-.07,.04-.1,.06c.02-.02,.05-.04,.1-.06Zm3.9-5.65c0,.41-.14,.75-.41,1.03-.27,.28-.62,.42-1.05,.42s-.79-.14-1.05-.42c-.26-.28-.4-.62-.4-1.03s.13-.78,.4-1.08,.61-.45,1.03-.45c.45,0,.81,.14,1.08,.42s.41,.65,.41,1.1Z" fill="#1b2e4e"/>
    <path d="M95.03,102.02h-5.17v-.92c.21-.02,.37-.08,.45-.2,.09-.11,.13-.25,.13-.4v-8.95c0-.56-.11-.96-.32-1.21-.21-.25-.56-.37-1.03-.37-.34,0-.68,.08-1.01,.24-.33,.16-.65,.38-.96,.67-.31,.28-.6,.62-.87,1.01s-.53,.82-.76,1.27c-.18,.41-.34,.84-.49,1.3-.15,.46-.28,.91-.39,1.36-.11,.45-.2,.9-.26,1.35s-.09,.86-.09,1.24c0,.47,.03,.88,.09,1.23s.14,.62,.23,.81h0c.16,.16,.42,.31,.78,.44s.78,.2,1.25,.22v.92h-6.74v-.92c.77-.06,1.33-.25,1.67-.59s.51-.86,.51-1.6v-7.37c0-.48-.07-.82-.21-1.03s-.36-.32-.66-.32c-.07,0-.22,.03-.45,.09-.23,.06-.52,.16-.86,.3v-.95s.09-.03,.13-.04h.03s-.04-.04,0-.06,.15-.05,.34-.09c0,0,.02,0,.03,0,0,0,.02,0,.03,0h-.01s.08-.03,.12-.03c.07-.04,.12-.07,.15-.09s.05-.04,.07-.05h0c.14-.05,.23-.1,.28-.12s.09-.04,.13-.06c.02,0,.04-.02,.07-.03s.05-.02,.07-.03h0s.08-.02,.1-.03l.06-.03s.09-.04,.12-.05c.03-.01,.08-.03,.12-.05,.02,0,.04-.02,.07-.02s.05-.01,.07-.02c.03,0,.05-.02,.07-.03,.06-.06,.12-.08,.19-.06l.06-.03s.02,0,.04-.03h-.03s.06-.03,.12-.03h-.03s.07-.02,.1-.04c.03-.02,.04-.02,.03-.02h-.01s.01,0,0,0c0,0,0,0,.02-.01l.12-.06s.1-.04,.16-.06l.12-.03h-.01s.32-.15,.32-.15l.07-.03h-.03c.06-.02,.11-.04,.15-.05,.04-.02,.09-.03,.12-.05h0s.15-.04,.15-.04c0,0,.02,0,.04,0,.01,0,.03,0,.05,0h.7v4.56s.02-.04,.04-.06,.03-.04,.04-.06c.02-.02,.04-.05,.07-.08,.02-.03,.05-.06,.07-.08l.19-.21h0c.4-.49,.78-.96,1.13-1.4,.36-.43,.65-.75,.87-.94,.6-.54,1.2-.96,1.8-1.27,.61-.31,1.18-.46,1.73-.46,.85,0,1.48,.27,1.88,.8,.4,.53,.61,1.36,.61,2.47v7.56c0,.74,.17,1.28,.51,1.62s.9,.52,1.69,.56v.92Zm-12.63-13.42h0Z" fill="#1b2e4e"/>
    <path d="M110.06,103.28c0,.84-.31,1.62-.92,2.34-.62,.72-1.46,1.33-2.53,1.82-.89,.41-1.81,.71-2.76,.91-.95,.2-1.91,.29-2.88,.29-.31,0-.64-.02-.98-.05-.34-.04-.68-.08-1.01-.15-.33-.06-.65-.13-.96-.21-.31-.08-.58-.16-.83-.25-.68-.32-1.24-.71-1.67-1.17s-.64-1-.64-1.61,.24-1.14,.73-1.66c.48-.52,1.18-1,2.09-1.44,.54-.23,1.17-.47,1.9-.72,.73-.24,1.47-.46,2.23-.66-.29-.25-.52-.51-.67-.78s-.23-.51-.23-.75c0-.27,.14-.61,.42-1.02,.28-.4,.7-.86,1.25-1.37,0,0-.02,0-.02,0s-.02,0-.04,0c0,0-.02,0-.03,0,0,0-.02,0-.03,0-.69,.12-1.22,.18-1.58,.18-.6,0-1.14-.08-1.62-.23-.48-.15-.93-.38-1.34-.68-.41-.34-.73-.74-.94-1.19-.22-.45-.33-.94-.33-1.46,0-.7,.18-1.37,.54-2.01,.36-.64,.9-1.24,1.63-1.79,.68-.53,1.38-.91,2.09-1.16,.71-.24,1.44-.37,2.2-.37,.14,0,.31,.02,.51,.05s.43,.08,.67,.15,.49,.14,.75,.23c.26,.09,.51,.18,.77,.28,.64,.24,1.24,.44,1.77,.6s.98,.23,1.32,.23h1.1v.83h-2.81c.1,.25,.17,.5,.21,.73s.06,.44,.06,.62c0,.37-.08,.77-.25,1.19-.17,.42-.39,.84-.67,1.25-.2,.22-.45,.51-.77,.84-.32,.34-.68,.67-1.09,1-.23,.21-.45,.42-.65,.63-.2,.21-.38,.4-.53,.58-.15,.18-.27,.34-.35,.48-.08,.14-.12,.25-.12,.33,0,.1,.07,.21,.22,.34,.15,.13,.34,.27,.59,.42,.25,.15,.54,.3,.87,.45,.33,.15,.67,.29,1.03,.43,.24,.09,.5,.18,.77,.28s.53,.2,.78,.3c.25,.1,.48,.2,.7,.3,.22,.1,.4,.19,.53,.28,.51,.34,.9,.71,1.17,1.11,.27,.4,.4,.81,.4,1.22Zm-2.23,.83c0-.28-.1-.55-.29-.79s-.49-.45-.89-.62c-.06-.02-.16-.05-.29-.1s-.3-.11-.5-.19c-.14-.05-.3-.11-.48-.18-.18-.07-.37-.14-.56-.22-.05-.02-.1-.04-.15-.05-.05-.02-.09-.03-.12-.05l-1.61-.67c-1.97,.53-3.44,1.09-4.39,1.7s-1.44,1.27-1.44,2.01c0,.42,.17,.82,.5,1.19s.76,.66,1.29,.88c.44,.17,.92,.29,1.44,.39s1.04,.14,1.55,.14c.63,0,1.29-.08,1.96-.23,.67-.15,1.27-.32,1.81-.52,.32-.15,.62-.32,.89-.53,.27-.21,.5-.42,.7-.66s.35-.48,.45-.73,.16-.51,.16-.76Zm-2.86-11.53c0-.41-.07-.82-.22-1.22s-.32-.76-.53-1.08c-.26-.32-.57-.59-.92-.79s-.74-.31-1.16-.31-.84,.09-1.22,.27c-.39,.18-.74,.44-1.05,.78-.2,.29-.36,.66-.5,1.1s-.21,.87-.21,1.29,.06,.86,.18,1.27,.28,.76,.48,1.05c.31,.34,.65,.62,1.03,.83s.76,.31,1.16,.31,.8-.11,1.17-.34,.7-.5,.98-.81c.21-.29,.39-.65,.56-1.08,.17-.42,.25-.85,.25-1.28Z" fill="#1b2e4e"/>
  </g>
  <path d="M40.31,28.7l19.58-11.45c.07-.04,.15-.04,.22,0l19.57,11.45c.78,.46,1.76-.11,1.76-1.01V9.89c0-.16-.18-.26-.32-.18l-10.28,6.18c-.07,.04-.17,.04-.24-.02l-10.48-8.29c-.08-.06-.18-.06-.26,0l-10.48,8.29c-.07,.05-.16,.06-.24,.02l-10.28-6.18c-.14-.08-.32,.02-.32,.18V27.69c0,.9,.98,1.46,1.75,1.01Z" fill="#d2b46c"/>
</svg>