<?xml version="1.0" encoding="UTF-8"?>
<svg id="Layer_1" data-name="Layer 1" xmlns="http://www.w3.org/2000/svg" viewBox="0 0 90 90">
  <g>
    <path d="M44.98,11.38c-.06,0-.12,.02-.17,.05l-23.44,13.27c-.22,.13-.36,.36-.36,.62V63.18c0,.54,.59,.88,1.06,.62l9.31-5.3c.22-.13,.36-.36,.36-.62V30.5c0-.86,1-1.34,1.67-.8l11.35,9.13c.07,.05,.15,.08,.23,.08V11.38Z" fill="#d2b56c"/>
    <path d="M44.98,11.38c.06,0,.12,.02,.17,.05l23.44,13.27c.22,.13,.36,.36,.36,.62V63.18c0,.54-.59,.88-1.06,.62l-9.31-5.3c-.22-.13-.36-.36-.36-.62V30.5c0-.86-1-1.34-1.67-.8l-11.35,9.13c-.07,.05-.15,.08-.23,.08V11.38Z" fill="#1c2e4e"/>
  </g>
  <g>
    <path d="M8.5,66.24l6.33,15.61,6.31-15.61c.21-.54,.57-.97,1.23-.97h1.06v18.89h-.9c-.5,0-.87-.42-.87-.97v-13.56l-5.9,14.53h-1.87l-7.68-18.89h1.06c.66,0,1.02,.42,1.23,.97Zm-2.29,9.31h1.77v7.65c0,.54-.38,.97-.87,.97h-.9v-8.62Z" fill="#1b2e4e"/>
    <path d="M31.05,69.62c3.47,0,5.67,2.15,5.67,5.57h-11.31c0-3.42,2.17-5.57,5.65-5.57Zm-4.89,8.38c.52,0,.9,.42,.9,.97,0,2.48,1.54,4.04,3.99,4.04,1.72,0,2.69-.76,3.21-1.42,.64-.8,.83-1.58,1.72-1.58h.66c-.38,2.48-2.13,4.54-5.6,4.54s-5.65-2.15-5.65-5.57v-.97h.76Zm8.67-4.35c-.52-1.56-1.89-2.5-3.78-2.5s-3.26,.94-3.76,2.5h7.53Z" fill="#1b2e4e"/>
    <path d="M38.47,65.28h.76c.52,0,.9,.42,.9,.97v16.96c0,.54-.38,.97-.87,.97h-.78v-18.89Z" fill="#1b2e4e"/>
    <path d="M42.58,65.28h.76c.52,0,.9,.42,.9,.97v9.14l4.75-4.42c.52-.47,1.13-.97,1.94-.97h1.37l-4.27,4.01,5.88,10.16h-.85c-.9,0-1.25-.42-1.56-.97l-4.68-8.05-2.57,2.41v5.64c0,.54-.38,.97-.87,.97h-.78v-18.89Z" fill="#1b2e4e"/>
    <path d="M55.08,65.28h.76c.52,0,.9,.42,.9,.97v1.23c0,.54-.38,.97-.87,.97h-.78v-3.16Zm0,4.72h.76c.52,0,.9,.42,.9,.97v12.23c0,.54-.38,.97-.87,.97h-.78v-14.17Z" fill="#1b2e4e"/>
    <path d="M59.15,70h.76c.52,0,.9,.42,.9,.97v.33c.83-1.06,2.15-1.68,3.99-1.68,3.47,0,5.67,2.15,5.67,5.57v8.97h-.78c-.5,0-.87-.42-.87-.97v-8.01c0-2.48-1.56-4.04-4.02-4.04s-3.99,1.56-3.99,4.04v8.01c0,.54-.38,.97-.87,.97h-.78v-14.17Z" fill="#1b2e4e"/>
    <path d="M72.22,75.22c0-3.45,2.17-5.6,5.65-5.6,1.84,0,3.19,.61,4.01,1.7v-.35c0-.54,.38-.97,.9-.97h.76v6.92c0,3.42-2.2,5.57-5.67,5.57s-5.65-2.15-5.65-5.57v-1.7Zm11.24,7.51v.97c0,3.42-2.17,5.57-5.65,5.57s-5.22-2.05-5.6-4.54h.66c.9,0,1.09,.78,1.72,1.58,.52,.66,1.49,1.42,3.21,1.42,2.46,0,3.99-1.56,3.99-4.04,0-.54,.38-.97,.9-.97h.76Zm-5.6-1.77c2.46,0,4.01-1.56,4.01-4.04v-1.7c0-2.5-1.56-4.06-4.01-4.06s-3.99,1.56-3.99,4.06v1.7c0,2.48,1.54,4.04,3.99,4.04Z" fill="#1b2e4e"/>
  </g>
  <path d="M27.85,19.53l17.03-9.96c.06-.03,.13-.03,.19,0l17.03,9.96c.68,.4,1.53-.09,1.53-.88V3.17c0-.14-.15-.23-.28-.16l-8.94,5.37c-.07,.04-.15,.03-.21-.01L45.09,1.17c-.07-.05-.16-.05-.23,0l-9.11,7.21c-.06,.05-.14,.05-.21,.01L26.6,3.02c-.12-.07-.28,.01-.28,.16v15.48c0,.78,.85,1.27,1.53,.88Z" fill="#d2b46c"/>
</svg>