<?xml version="1.0" encoding="UTF-8"?>
<svg id="Layer_1" data-name="Layer 1" xmlns="http://www.w3.org/2000/svg" viewBox="0 0 90 90">
  <g>
    <path d="M45,12.98c-.06,0-.11,.02-.17,.05l-22.27,12.61c-.21,.12-.34,.34-.34,.59V62.2c0,.52,.56,.84,1.01,.58l8.85-5.04c.21-.12,.34-.34,.34-.58V31.15c0-.82,.95-1.27,1.58-.76l10.79,8.68c.06,.05,.14,.08,.22,.08V12.98Z" fill="#d2b56c"/>
    <path d="M45,12.98c.06,0,.11,.02,.17,.05l22.27,12.61c.21,.12,.34,.34,.34,.59V62.2c0,.52-.56,.84-1.01,.58l-8.85-5.04c-.21-.12-.34-.34-.34-.58V31.15c0-.82-.95-1.27-1.58-.76l-10.79,8.68c-.06,.05-.14,.08-.22,.08V12.98Z" fill="#1c2e4e"/>
  </g>
  <g>
    <path d="M30.52,67.21h.04v3.74c-.04,.07-1.16,.52-3.35,1.35v.04c1.46,.41,2.79,.83,4,1.26v.7c0,.52,.01,1.25,.04,2.17,.04,.28,.21,.41,.52,.39h1.22c.06,0,.09,.04,.09,.09v6.04c0,.06-.04,.09-.13,.09-.77,0-1.41-.25-1.91-.74-.53,.49-1.24,.74-2.13,.74-1.18,0-5.14-.01-11.87-.04-1.05,0-1.75-.54-2.09-1.61-.06-.36-.09-.67-.09-.91v-6.91l.04-.09c1.94,.41,2.97,.64,3.09,.7-.03,.01-.09,.88-.17,2.61h8.87c-.03-.34-.04-.59-.04-.74v-.09l-3.39-.7v-3.74c-.06-.88,.15-1.41,.61-1.61,.23-.17,2.45-1.09,6.65-2.74Zm-.09-1.76l.04,.09v1c-.15,.12-2.54,1.15-7.17,3.09l-.04-.09v-1c.15-.12,2.54-1.14,7.17-3.09Z" fill="#1b2e4e"/>
    <path d="M38.64,73.12v2.83c0,.61,.2,.91,.61,.91h1.3c.06,0,.09,.04,.09,.09v6.04c0,.06-.03,.09-.09,.09h-1.7c-.84,0-1.51-.25-2-.74-.46,.49-1.3,.74-2.52,.74h-1.26c-.06,0-.09-.03-.09-.09v-6.04c0-.06,.04-.09,.09-.09h2.44v-.04c0-.09-.12-1.04-.35-2.83,1.14-.35,2.3-.64,3.48-.87Zm-1.94-4.14h.04s.57,.54,1.61,1.61c0,.04-.54,.57-1.61,1.61h-.04s-.57-.54-1.61-1.61c0-.04,.54-.57,1.61-1.61Z" fill="#1b2e4e"/>
    <path d="M46.09,73.12v2.83c0,.61,.2,.91,.61,.91h1.3c.06,0,.09,.04,.09,.09v6.04c0,.06-.03,.09-.09,.09h-1.7c-.84,0-1.51-.25-2-.74-.46,.49-1.3,.74-2.52,.74h-1.26c-.06,0-.09-.03-.09-.09v-6.04c0-.06,.04-.09,.09-.09h2.44v-.04c0-.09-.12-1.04-.35-2.83,1.14-.35,2.3-.64,3.48-.87Zm-3.15,11.06h.04l1.26,1.22,1.26-1.22h.04s.57,.54,1.61,1.61c0,.04-.54,.57-1.61,1.61h-.04l-1.26-1.22-1.26,1.22h-.04s-.57-.54-1.61-1.61c0-.04,.54-.57,1.61-1.61Z" fill="#1b2e4e"/>
    <path d="M55.82,67.21h.04v3.74c-.04,.07-1.16,.52-3.35,1.35v.04c1.46,.41,2.79,.83,4,1.26v.7c0,.52,.01,1.25,.04,2.17,0,.28,.18,.41,.52,.39h1.22c.06,0,.09,.04,.09,.09v6.04c0,.06-.04,.09-.13,.09-.77,0-1.41-.25-1.91-.74-.5,.49-1.25,.74-2.26,.74h-6.09c-.06,0-.09-.03-.09-.09v-6.04c0-.06,.04-.09,.09-.09h4c-.03-.37-.04-.63-.04-.78v-.09l-3.39-.7v-3.74c-.02-.89,.18-1.43,.61-1.61,.23-.17,2.45-1.09,6.65-2.74Z" fill="#1b2e4e"/>
    <path d="M64.12,69.21s.01,.04,.04,.04l-.3,7.61h1.43c.06,0,.09,.04,.09,.09v6.04c0,.06-.03,.09-.09,.09h-1.35c-.75,0-1.38-.25-1.87-.74-.46,.49-1.2,.74-2.22,.74h-1.48c-.06,0-.09-.03-.09-.09v-6.04c0-.06,.04-.09,.09-.09h1.57l.09-.04-.52-6.17c2.47-.72,4.01-1.2,4.61-1.43Z" fill="#1b2e4e"/>
    <path d="M68.68,73.04h2.57c1.17,0,1.91,.36,2.22,1.09,.2,.4,.3,.79,.3,1.17v6.09c-.59,1.4-1.43,2.38-2.52,2.96-.63-.43-1.47-1.07-2.52-1.91-.5,.43-1.01,.65-1.52,.65h-.22c-.43,0-1.02,0-1.78,.01v-6.14c0-.06,.04-.09,.09-.09h.96c.03-.36,.04-.64,.04-.83v-1.04c0-.89,.57-1.53,1.7-1.91,.3-.03,.53-.04,.7-.04Zm-.09,3.96v.04l3.3,1.44v-.78c0-.4-.3-.63-.91-.7h-2.39Z" fill="#1b2e4e"/>
  </g>
  <path d="M28.73,20.73l16.18-9.46c.06-.03,.12-.03,.18,0l16.18,9.46c.64,.38,1.45-.09,1.45-.83V5.19c0-.13-.15-.22-.26-.15l-8.5,5.1c-.06,.04-.14,.03-.2-.01l-8.66-6.85c-.06-.05-.15-.05-.21,0l-8.66,6.85c-.06,.04-.13,.05-.2,.01l-8.5-5.1c-.12-.07-.26,.01-.26,.15v14.71c0,.74,.81,1.21,1.45,.83Z" fill="#d2b46c"/>
</svg>